<svg xmlns="http://www.w3.org/2000/svg" viewBox="0 0 281 351.5"><defs><style>.a,.c{fill:#fff;}.a,.b{stroke:#7300be;stroke-dasharray:5;}.b,.e,.h{fill:none;}.d{fill:#67dde0;}.e{stroke:#4d5152;stroke-miterlimit:10;stroke-width:2px;}.f{fill:#ffb957;}.g{stroke:none;}</style></defs><g transform="translate(-1438 -3492)"><g class="a" transform="translate(1438 3492)"><rect class="g" width="281" height="275" rx="15"/><rect class="h" x="0.5" y="0.5" width="280" height="274" rx="14.5"/></g><path d="M-68.029-14.794h9.516V-17.68H-71.149V0h3.12V-6.812h8.372V-9.7h-8.372Zm22.8,8.45c-.026-3.8-2.6-6.344-6.084-6.344a6.26,6.26,0,0,0-6.474,6.552A6.331,6.331,0,0,0-51.233.39a5.779,5.779,0,0,0,5.772-3.8h-3.2a2.679,2.679,0,0,1-2.5,1.144,3.45,3.45,0,0,1-3.692-3.094h9.542A5.239,5.239,0,0,0-45.227-6.344Zm-6.084-3.8A2.954,2.954,0,0,1-48.269-7.2H-54.8A3.369,3.369,0,0,1-51.311-10.14Zm20.8,3.8c-.026-3.8-2.6-6.344-6.084-6.344a6.26,6.26,0,0,0-6.474,6.552A6.331,6.331,0,0,0-36.517.39a5.779,5.779,0,0,0,5.772-3.8h-3.2a2.679,2.679,0,0,1-2.5,1.144,3.45,3.45,0,0,1-3.692-3.094h9.542A5.239,5.239,0,0,0-30.511-6.344Zm-6.084-3.8A2.954,2.954,0,0,1-33.553-7.2h-6.526A3.369,3.369,0,0,1-36.595-10.14Zm21.216-8.32h-2.99v7.02a6.359,6.359,0,0,0-3.77-1.144,6.289,6.289,0,0,0-6.188,6.422A6.3,6.3,0,0,0-22.139.286a6.2,6.2,0,0,0,3.77-1.17V0h2.99ZM-21.7-2.314a3.731,3.731,0,0,1-3.64-3.848A3.724,3.724,0,0,1-21.7-9.984a3.834,3.834,0,0,1,3.328,1.716v4.212A3.8,3.8,0,0,1-21.7-2.314Zm16.614-10.27A6.221,6.221,0,0,0-8.827-11.44v-7.02h-3.016V0h3.016V-.858A6.221,6.221,0,0,0-5.083.286,6.3,6.3,0,0,0,1.1-6.162,6.289,6.289,0,0,0-5.083-12.584Zm-.442,10.27a3.791,3.791,0,0,1-3.3-1.716V-8.294a3.826,3.826,0,0,1,3.3-1.69,3.707,3.707,0,0,1,3.64,3.822A3.714,3.714,0,0,1-5.525-2.314ZM13.247-12.3v.858a6.359,6.359,0,0,0-3.77-1.144A6.3,6.3,0,0,0,3.289-6.136,6.289,6.289,0,0,0,9.477.286a6.359,6.359,0,0,0,3.77-1.144V0h2.99V-12.3ZM9.919-2.314a3.724,3.724,0,0,1-3.64-3.822,3.731,3.731,0,0,1,3.64-3.848,3.8,3.8,0,0,1,3.328,1.742v4.186A3.8,3.8,0,0,1,9.919-2.314Zm15.548-.1a3.5,3.5,0,0,1-3.536-3.718,3.5,3.5,0,0,1,3.536-3.718A2.84,2.84,0,0,1,28.431-7.7H31.5a5.812,5.812,0,0,0-6.032-4.888,6.368,6.368,0,0,0-6.526,6.448A6.362,6.362,0,0,0,25.467.286,5.79,5.79,0,0,0,31.5-4.6H28.431A2.835,2.835,0,0,1,25.467-2.418ZM39.559-5.044,43.381,0h3.9L41.639-7.2l4.94-5.1H42.757l-5.408,5.59V-18.46h-2.99V0h2.99V-2.756ZM68.705,0h3.952L68.809-3.588l.208-.312,3.328-5.148H69.2l-2.34,3.614L63.921-8.19c-2.47-2.262-3.692-3.38-3.692-4.888A2.253,2.253,0,0,1,62.6-15.392a2.444,2.444,0,0,1,2.444,2.418h3.016c-.364-3.068-2.366-5.1-5.434-5.1-3.12,0-5.512,2.028-5.512,4.966a5,5,0,0,0,1.3,3.25A5.269,5.269,0,0,0,55.263-5.1c0,3.25,2.6,5.46,6.526,5.46A7.808,7.808,0,0,0,67.015-1.56ZM61.789-2.288c-2.054,0-3.614-1.274-3.614-2.834A3.138,3.138,0,0,1,60.229-7.9l1.04.988,3.77,3.51A5.706,5.706,0,0,1,61.789-2.288ZM-28.8,19.32h-3.12v9.828c0,3.146-1.9,5.33-4.706,5.33-2.834,0-4.706-2.184-4.706-5.33V19.32h-3.12v9.828c0,5.07,3.146,8.242,7.826,8.242s7.826-3.172,7.826-8.242Zm10.244,5.1A6.221,6.221,0,0,0-22.3,25.56V24.7h-3.016v18.46H-22.3v-7.02a6.221,6.221,0,0,0,3.744,1.144,6.289,6.289,0,0,0,6.188-6.422A6.3,6.3,0,0,0-18.551,24.416Zm-.442,10.27a3.791,3.791,0,0,1-3.3-1.716V28.732a3.791,3.791,0,0,1,3.3-1.716,3.714,3.714,0,0,1,3.64,3.848A3.707,3.707,0,0,1-18.993,34.686ZM2.769,18.54H-.221v7.02a6.359,6.359,0,0,0-3.77-1.144,6.289,6.289,0,0,0-6.188,6.422,6.3,6.3,0,0,0,6.188,6.448,6.2,6.2,0,0,0,3.77-1.17V37h2.99ZM-3.549,34.686a3.731,3.731,0,0,1-3.64-3.848,3.724,3.724,0,0,1,3.64-3.822A3.834,3.834,0,0,1-.221,28.732v4.212A3.8,3.8,0,0,1-3.549,34.686ZM15.561,24.7v.858a6.328,6.328,0,0,0-9.958,5.3,6.289,6.289,0,0,0,6.188,6.422,6.359,6.359,0,0,0,3.77-1.144V37h2.99V24.7Zm-3.328,9.984a3.84,3.84,0,0,1,0-7.67,3.8,3.8,0,0,1,3.328,1.742v4.186A3.8,3.8,0,0,1,12.233,34.686Zm18.434-.39a8.055,8.055,0,0,1-2.08.312,2.078,2.078,0,0,1-2.34-2.34V27.224H30.8V24.7h-4.55V20.2h-2.99v4.5H20.449v2.522h2.808v5.044c0,3.172,1.82,5.122,4.758,5.122a9.009,9.009,0,0,0,3.068-.52Zm14.326-3.64c-.026-3.8-2.6-6.344-6.084-6.344a6.26,6.26,0,0,0-6.474,6.552,6.331,6.331,0,0,0,6.552,6.526,5.779,5.779,0,0,0,5.772-3.8h-3.2a2.679,2.679,0,0,1-2.5,1.144,3.45,3.45,0,0,1-3.692-3.094h9.542A5.239,5.239,0,0,0,44.993,30.656Zm-6.084-3.8A2.954,2.954,0,0,1,41.951,29.8H35.425A3.369,3.369,0,0,1,38.909,26.86Z" transform="translate(1578.149 3677)"/><line class="b" y1="71" transform="translate(1578.5 3772.5)"/><g transform="translate(1534 3546)"><path class="c" d="M49.968,35.065H79.774V1H23V43.581H41.452Z" transform="translate(9.226)"/><g transform="translate(1 20.871)"><path class="d" d="M43.581,44c9.935,5.677,19.871,4.258,19.871,18.452V65.29H1V62.452C1,48.258,10.935,49.677,20.871,44Z" transform="translate(-1 -2.839)"/><path class="c" d="M32.032,52.613l-5.677-2.839-5.677,2.839L15,46.935l2.839-4.258h1.419V37l7.1,1.419L33.452,37v5.677h1.419l2.839,4.258Z" transform="translate(4.871 -5.774)"/><path class="e" d="M30,44" transform="translate(11.161 -2.839)"/><path class="e" d="M43.581,44c9.935,5.677,19.871,4.258,19.871,18.452V65.29H1V62.452C1,48.258,10.935,49.677,20.871,44" transform="translate(-1 -2.839)"/><path class="e" d="M32.032,50.935,26.355,48.1l-5.677,2.839L15,45.258,17.839,41l8.516,1.419L34.871,41l2.839,4.258Z" transform="translate(4.871 -4.097)"/><line class="e" y2="5.677" transform="translate(38.323 31.226)"/><line class="e" y1="5.677" transform="translate(24.129 31.226)"/><line class="e" x2="2.839" transform="translate(29.806 56.774)"/><line class="e" x2="2.839" transform="translate(29.806 51.097)"/><g transform="translate(18.452)"><path class="c" d="M39.548,24.839v5.677c-1.419,9.935-5.677,12.774-5.677,12.774a18.452,18.452,0,0,1-14.194,0S15.419,40.452,14,30.516V24.839L19.677,22l14.194,5.677Z" transform="translate(-14 -12.065)"/><path class="f" d="M14,27.774C14,19.116,18.116,15,26.774,15s12.774,4.116,12.774,12.774l-5.677,2.839-7.1-2.839-7.1-2.839Z" transform="translate(-14 -15)"/><path class="e" d="M39.548,24v5.677c-1.419,9.935-5.677,12.774-5.677,12.774a18.452,18.452,0,0,1-14.194,0S15.419,39.613,14,29.677V24" transform="translate(-14 -11.226)"/><path class="e" d="M14,27.774C14,19.116,18.116,15,26.774,15s12.774,4.116,12.774,12.774" transform="translate(-14 -15)"/><path class="e" d="M14,24.839,19.677,22l7.1,2.839,7.1,2.839,5.677-2.839" transform="translate(-14 -12.065)"/></g></g><g transform="translate(32.226 1)"><path class="e" d="M41.452,43.581l8.516-8.516H79.774V1H23V16.613" transform="translate(-23 -1)"/></g><line class="e" x2="2.839" transform="translate(53.516 18.032)"/><line class="e" x2="2.839" transform="translate(59.194 18.032)"/><line class="e" x2="2.839" transform="translate(64.871 18.032)"/></g></g></svg>